HIERARCHY
ROOT joint_Root
{
	OFFSET 0.0 0.0 0.0
	CHANNELS 6 Xposition Yposition Zposition Zrotation Xrotation Yrotation 
	JOINT Hips
	{
		OFFSET -17.1583 93.1646 452.98
		CHANNELS 6 Xposition Yposition Zposition Zrotation Xrotation Yrotation 
		JOINT Spine
		{
			OFFSET 15.7357 0.0 0.0
			CHANNELS 6 Xposition Yposition Zposition Zrotation Xrotation Yrotation 
			JOINT Chest
			{
				OFFSET 8.98455 -0.406207 0.0
				CHANNELS 6 Xposition Yposition Zposition Zrotation Xrotation Yrotation 
				JOINT Neck
				{
					OFFSET 16.3773 0.0 0.0
					CHANNELS 6 Xposition Yposition Zposition Zrotation Xrotation Yrotation 
					JOINT Head
					{
						OFFSET 6.45672 0.0 0.0
						CHANNELS 6 Xposition Yposition Zposition Zrotation Xrotation Yrotation 
						End Site
						{
							OFFSET 0.0 0.0 0.0
						}
					}
				}
				JOINT Shoulder_L
				{
					OFFSET 12.9942 -0.242716 4.98039
					CHANNELS 6 Xposition Yposition Zposition Zrotation Xrotation Yrotation 
					JOINT UpperArm_L
					{
						OFFSET 5.34809 0.0 0.0
						CHANNELS 6 Xposition Yposition Zposition Zrotation Xrotation Yrotation 
						JOINT LowerArm_L
						{
							OFFSET 24.3286 1.87007e-05 0.0
							CHANNELS 6 Xposition Yposition Zposition Zrotation Xrotation Yrotation 
							JOINT Hand_L
							{
								OFFSET 22.2916 0.0 0.0
								CHANNELS 6 Xposition Yposition Zposition Zrotation Xrotation Yrotation 
								End Site
								{
									OFFSET 0.0 0.0 0.0
								}
							}
						}
					}
				}
				JOINT Shoulder_R
				{
					OFFSET 12.9945 -0.242716 -4.98039
					CHANNELS 6 Xposition Yposition Zposition Zrotation Xrotation Yrotation 
					JOINT UpperArm_R
					{
						OFFSET -5.34813 0.0 0.0
						CHANNELS 6 Xposition Yposition Zposition Zrotation Xrotation Yrotation 
						JOINT LowerArm_R
						{
							OFFSET -24.3289 0.000322201 0.0
							CHANNELS 6 Xposition Yposition Zposition Zrotation Xrotation Yrotation 
							JOINT Hand_R
							{
								OFFSET -22.2915 -0.000108084 0.0
								CHANNELS 6 Xposition Yposition Zposition Zrotation Xrotation Yrotation 
								End Site
								{
									OFFSET 0.0 0.0 0.0
								}
							}
						}
					}
				}
			}
		}
		JOINT UpperLeg_L
		{
			OFFSET -2.19248 -6.46944 0.0
			CHANNELS 6 Xposition Yposition Zposition Zrotation Xrotation Yrotation 
			JOINT LowerLeg_L
			{
				OFFSET 39.0811 0.0 -1.23785e-05
				CHANNELS 6 Xposition Yposition Zposition Zrotation Xrotation Yrotation 
				JOINT Foot_L
				{
					OFFSET 40.9854 0.0 -1.26872e-05
					CHANNELS 6 Xposition Yposition Zposition Zrotation Xrotation Yrotation 
					JOINT Toes_L
					{
						OFFSET 11.7543 0.0 0.0
						CHANNELS 6 Xposition Yposition Zposition Zrotation Xrotation Yrotation 
						End Site
						{
							OFFSET 0.0 0.0 0.0
						}
					}
				}
			}
		}
		JOINT UpperLeg_R
		{
			OFFSET -2.19251 6.46944 0.0
			CHANNELS 6 Xposition Yposition Zposition Zrotation Xrotation Yrotation 
			JOINT LowerLeg_R
			{
				OFFSET -39.0811 -0.00228153 -0.0401928
				CHANNELS 6 Xposition Yposition Zposition Zrotation Xrotation Yrotation 
				JOINT Foot_R
				{
					OFFSET -40.9854 0.0 0.0
					CHANNELS 6 Xposition Yposition Zposition Zrotation Xrotation Yrotation 
					JOINT Toes_R
					{
						OFFSET -11.7543 0.0 0.0
						CHANNELS 6 Xposition Yposition Zposition Zrotation Xrotation Yrotation 
						End Site
						{
							OFFSET 0.0 0.0 0.0
						}
					}
				}
			}
		}
	}
}
MOTION
Frames:	7
Frame Time:	0.0333333
0.000000 0.000000 0.000000 0.000000 0.000000 -0.000000 0.288025 92.944400 2.420890 87.714600 0.800563 1.209650 15.735700 0.000005 -0.000001 83.739000 87.424000 -89.776500 8.984550 -0.406207 -0.000000 -2.616920 -0.015816 -12.075400 16.377300 -0.000001 -0.000001 4.366910 -1.502930 -6.558790 6.456720 -0.000001 -0.000000 -2.188070 2.486750 -25.828300 12.994200 -0.242716 4.980390 -92.722500 8.562630 -72.287900 5.348090 -0.000007 -0.000001 -57.571900 3.369580 3.332360 24.328600 0.000019 0.000005 13.286900 24.510000 -29.650000 22.291600 -0.000001 0.000005 1.796110 4.796600 11.381300 12.994500 -0.242716 -4.980390 95.143100 -9.275620 -60.820800 -5.348130 -0.000001 -0.000004 -32.230000 -61.807700 -72.293900 -24.328900 0.000322 -0.000009 0.019364 0.287069 -4.065010 -22.291500 -0.000108 -0.000004 47.024900 5.522630 -7.474780 -2.192480 -6.469440 -0.000000 -174.519000 -5.526380 0.457109 39.081100 -0.000007 -0.000012 0.041243 -0.142573 16.134200 40.985400 -0.000006 -0.000013 0.236661 9.936860 -69.983000 11.754300 -0.000000 0.000003 -0.002884 0.206917 -8.180810 -2.192510 6.469440 -0.000001 175.682000 9.841050 -176.374000 -39.081100 -0.002282 -0.040193 -0.006401 0.051373 10.734300 -40.985400 0.000008 0.000006 -10.510000 9.002610 -65.987800 -11.754300 -0.000006 -0.000006 -0.010829 0.277401 -5.301590
0.000000 0.000000 0.000000 0.000000 0.000000 -0.000000 0.317460 92.946600 2.410100 87.727100 0.853259 1.148170 15.735700 0.000005 -0.000001 83.350500 87.439700 -89.349100 8.984550 -0.406207 -0.000000 -2.653980 -0.048461 -11.998500 16.377300 -0.000001 -0.000001 4.440470 -1.502150 -6.498070 6.456720 -0.000001 -0.000000 -2.175830 2.485330 -25.759800 12.994200 -0.242716 4.980390 -92.715900 8.534910 -72.274800 5.348090 -0.000007 -0.000001 -57.659600 3.441160 3.300860 24.328600 0.000019 0.000005 13.245000 24.438600 -29.636800 22.291600 -0.000001 0.000005 1.761890 4.797540 11.363600 12.994500 -0.242716 -4.980390 95.128000 -9.233800 -60.783300 -5.348130 -0.000001 -0.000004 -32.219800 -61.782800 -72.160200 -24.328900 0.000322 -0.000009 0.017763 0.277741 -3.871600 -22.291500 -0.000108 -0.000004 46.979800 5.523110 -7.495580 -2.192480 -6.469440 -0.000000 -174.561000 -5.499070 0.374141 39.081100 -0.000007 -0.000012 0.041944 -0.144992 16.134400 40.985400 -0.000006 -0.000013 0.253743 9.924300 -69.951200 11.754300 -0.000000 0.000003 -0.003071 0.209028 -8.094890 -2.192510 6.469440 -0.000001 175.682000 9.796800 -176.455000 -39.081100 -0.002282 -0.040193 -0.006069 0.049520 10.755000 -40.985400 0.000008 0.000006 -10.503300 8.909530 -65.975100 -11.754300 -0.000006 -0.000006 -0.010594 0.275695 -5.371410
0.000000 0.000000 0.000000 0.000000 0.000000 -0.000000 0.330049 92.944900 2.422630 87.736100 0.845614 1.175940 15.735700 0.000005 -0.000001 83.124500 87.447400 -89.083200 8.984550 -0.406207 -0.000000 -2.673240 -0.069256 -11.919300 16.377300 -0.000001 -0.000001 4.454160 -1.468950 -6.379040 6.456720 -0.000001 -0.000000 -2.031470 2.544610 -25.727600 12.994200 -0.242716 4.980390 -92.711300 8.506930 -72.248900 5.348090 -0.000007 -0.000001 -57.753500 3.438130 3.401090 24.328600 0.000019 0.000005 13.291800 24.447700 -29.718200 22.291600 -0.000001 0.000005 1.673920 4.800400 11.309500 12.994500 -0.242716 -4.980390 95.128500 -9.232680 -60.778200 -5.348130 -0.000001 -0.000004 -32.435900 -61.752700 -72.243100 -24.328900 0.000322 -0.000009 0.013531 0.221484 -3.763350 -22.291500 -0.000108 -0.000004 47.017400 5.517490 -7.255250 -2.192480 -6.469440 -0.000000 -174.575000 -5.487000 0.417315 39.081100 -0.000007 -0.000012 0.041910 -0.144933 16.128300 40.985400 -0.000006 -0.000013 0.257883 9.905030 -69.970600 11.754300 -0.000000 0.000003 -0.003069 0.209012 -8.095530 -2.192510 6.469440 -0.000001 175.654000 9.747660 -176.403000 -39.081100 -0.002282 -0.040193 -0.006150 0.050036 10.736200 -40.985400 0.000008 0.000006 -10.580500 8.881050 -66.011800 -11.754300 -0.000006 -0.000006 -0.011034 0.278876 -5.241210
0.000000 0.000000 0.000000 0.000000 0.000000 -0.000000 0.317813 92.944200 2.429980 87.711600 0.836210 1.141850 15.735700 0.000005 -0.000001 83.093400 87.473600 -89.008700 8.984550 -0.406207 -0.000000 -2.725700 -0.066948 -11.832500 16.377300 -0.000001 -0.000001 4.431130 -1.457020 -6.292670 6.456720 -0.000001 -0.000000 -1.941380 2.528510 -25.606800 12.994200 -0.242716 4.980390 -92.699500 8.465760 -72.241200 5.348090 -0.000007 -0.000001 -57.872500 3.406170 3.418230 24.328600 0.000019 0.000005 13.278300 24.517300 -29.626700 22.291600 -0.000001 0.000005 1.572080 4.803130 11.258000 12.994500 -0.242716 -4.980390 95.117700 -9.206870 -60.762200 -5.348130 -0.000001 -0.000004 -32.567400 -61.789000 -72.266300 -24.328900 0.000322 -0.000009 0.000453 0.023080 -3.693850 -22.291500 -0.000108 -0.000004 46.920900 5.519070 -7.322540 -2.192480 -6.469440 -0.000000 -174.540000 -5.472430 0.378510 39.081100 -0.000007 -0.000012 0.041655 -0.143970 16.137000 40.985400 -0.000006 -0.000013 0.247075 9.911170 -69.938000 11.754300 -0.000000 0.000003 -0.002914 0.207258 -8.166950 -2.192510 6.469440 -0.000001 175.701000 9.706520 -176.441000 -39.081100 -0.002282 -0.040193 -0.006040 0.049496 10.728700 -40.985400 0.000008 0.000006 -10.574200 8.845770 -65.965100 -11.754300 -0.000006 -0.000006 -0.010854 0.277579 -5.294290
0.000000 0.000000 0.000000 0.000000 0.000000 -0.000000 0.307052 92.950100 2.443700 87.723300 0.808994 1.175240 15.735700 0.000005 -0.000001 83.096800 87.479100 -88.985200 8.984550 -0.406207 -0.000000 -2.736860 -0.067196 -11.778900 16.377300 -0.000001 -0.000001 4.461900 -1.447840 -6.242460 6.456720 -0.000001 -0.000000 -1.964380 2.555080 -25.473900 12.994200 -0.242716 4.980390 -92.698500 8.459870 -72.235600 5.348090 -0.000007 -0.000001 -57.939900 3.436190 3.538090 24.328600 0.000019 0.000005 13.307900 24.495900 -29.703600 22.291600 -0.000001 0.000005 1.523930 4.798440 11.346600 12.994500 -0.242716 -4.980390 95.111500 -9.185220 -60.734800 -5.348130 -0.000001 -0.000004 -32.422800 -61.756500 -72.086300 -24.328900 0.000322 -0.000009 -0.001169 -0.002122 -3.647230 -22.291500 -0.000108 -0.000004 46.997300 5.514830 -7.143310 -2.192480 -6.469440 -0.000000 -174.548000 -5.486960 0.511581 39.081100 -0.000007 -0.000012 0.042605 -0.148355 16.023300 40.985400 -0.000006 -0.000013 0.238311 9.901480 -69.986700 11.754300 -0.000000 0.000003 -0.003134 0.209738 -8.066000 -2.192510 6.469440 -0.000001 175.671000 9.801410 -176.407000 -39.081100 -0.002282 -0.040193 -0.006202 0.050270 10.745100 -40.985400 0.000008 0.000006 -10.576100 8.946830 -65.934000 -11.754300 -0.000006 -0.000006 -0.010736 0.276728 -5.329150
0.000000 0.000000 0.000000 0.000000 0.000000 -0.000000 0.275720 92.945200 2.447290 87.719100 0.789641 1.193280 15.735700 0.000005 -0.000001 82.717300 87.489800 -88.571900 8.984550 -0.406207 -0.000000 -2.764290 -0.099255 -11.712200 16.377300 -0.000001 -0.000001 4.400050 -1.439360 -6.208460 6.456720 -0.000001 -0.000000 -1.969440 2.550210 -25.367100 12.994200 -0.242716 4.980390 -92.703200 8.467240 -72.221100 5.348090 -0.000007 -0.000001 -57.983100 3.418680 3.634530 24.328600 0.000019 0.000005 13.256400 24.455600 -29.642600 22.291600 -0.000001 0.000005 1.525730 4.799080 11.334400 12.994500 -0.242716 -4.980390 95.122000 -9.200680 -60.725400 -5.348130 -0.000001 -0.000004 -32.382100 -61.748000 -71.991600 -24.328900 0.000322 -0.000009 -0.005928 -0.076870 -3.640510 -22.291500 -0.000108 -0.000004 46.929100 5.517180 -7.242750 -2.192480 -6.469440 -0.000000 -174.521000 -5.503260 0.492297 39.081100 -0.000007 -0.000012 0.042442 -0.147231 16.080500 40.985400 -0.000006 -0.000013 0.219999 9.900720 -69.993100 11.754300 -0.000000 0.000003 -0.003354 0.212177 -7.966730 -2.192510 6.469440 -0.000001 175.709000 9.678380 -176.410000 -39.081100 -0.002282 -0.040193 -0.006270 0.050441 10.783400 -40.985400 0.000008 0.000006 -10.518300 8.880600 -65.975400 -11.754300 -0.000006 -0.000006 -0.010704 0.276491 -5.338830
0.000000 0.000000 0.000000 0.000000 0.000000 -0.000000 0.243323 92.949800 2.441630 87.739800 0.759064 1.189880 15.735700 0.000005 -0.000001 82.412800 87.502800 -88.238400 8.984550 -0.406207 -0.000000 -2.794950 -0.123371 -11.655000 16.377300 -0.000001 -0.000001 4.384190 -1.456120 -6.180160 6.456720 -0.000001 -0.000000 -2.063080 2.575540 -25.323500 12.994200 -0.242716 4.980390 -92.703600 8.463920 -72.212400 5.348090 -0.000007 -0.000001 -58.070800 3.285250 3.704140 24.328600 0.000019 0.000005 13.280700 24.600500 -29.553100 22.291600 -0.000001 0.000005 1.707610 4.803090 11.258700 12.994500 -0.242716 -4.980390 95.109900 -9.169820 -60.701700 -5.348130 -0.000001 -0.000004 -32.239700 -61.765500 -71.899700 -24.328900 0.000322 -0.000009 -0.004272 -0.050180 -3.688420 -22.291500 -0.000108 -0.000004 46.754600 5.515680 -7.178770 -2.192480 -6.469440 -0.000000 -174.511000 -5.516440 0.536930 39.081100 -0.000007 -0.000012 0.041270 -0.144083 15.983600 40.985400 -0.000006 -0.000013 0.183514 9.908130 -69.910700 11.754300 -0.000000 0.000003 -0.002898 0.207078 -8.174270 -2.192510 6.469440 -0.000001 175.720000 9.658430 -176.429000 -39.081100 -0.002282 -0.040193 -0.006149 0.049721 10.802200 -40.985400 0.000008 0.000006 -10.470700 8.850380 -66.014400 -11.754300 -0.000006 -0.000006 -0.010788 0.277099 -5.313950
